<?xml version="1.0" standalone="no"?><!DOCTYPE svg PUBLIC "-//W3C//DTD SVG 1.1//EN" "http://www.w3.org/Graphics/SVG/1.1/DTD/svg11.dtd"><svg t="1588415086641" class="icon" viewBox="0 0 1024 1024" version="1.1" xmlns="http://www.w3.org/2000/svg" p-id="2161" width="32" height="32" xmlns:xlink="http://www.w3.org/1999/xlink"><defs><style type="text/css"></style></defs><path d="M941.056 808.96l-288.256-285.184c79.36-120.832 69.12-280.576-32.768-381.952C502.784 25.6 308.736 30.72 186.368 153.6c-122.368 122.88-126.464 316.928-9.216 433.664 103.936 103.424 268.8 110.592 390.144 24.576l280.576 276.48c13.312 13.312 30.208 22.016 48.64 24.576 39.424 5.632 56.32-13.312 62.976-34.304 7.68-24.576 0-51.712-18.432-69.632zM549.376 513.536c-88.064 88.576-227.328 93.696-310.272 11.776-82.944-82.432-78.848-221.696 9.728-310.272 88.064-89.088 227.328-94.208 310.272-11.776 82.432 82.432 78.336 221.696-9.728 310.272z" fill="#675353" p-id="2162"></path></svg>